<svg xmlns="http://www.w3.org/2000/svg" viewBox="0 0 1000 260" aria-label="TopStone horizontal logotype">
  <title>TopStone — Horizontal Logotype</title>
  <!-- Icon -->
  <g transform="translate(0,10)">
    <rect x="20" y="20" width="200" height="200" rx="24" fill="#0B0B0C"/>
    <path d="M220 95 L95 220 L220 220 Z" fill="#B08968"/>
    <rect x="64" y="60" width="112" height="18" fill="#F3F2EF"/>
    <rect x="112" y="78" width="16" height="88" fill="#F3F2EF"/>
    <path d="M152 176c0 14-12 24-32 24-18 0-32-7-40-18l14-10c6 7 15 12 26 12 10 0 16-3 16-8 0-5-5-8-20-11-24-5-38-13-38-30 0-16 15-28 38-28 18 0 31 6 39 16l-14 10c-6-7-15-10-25-10-12 0-18 4-18 10 0 5 6 8 22 11 22 5 36 12 36 30Z" fill="#F3F2EF"/>
  </g>
  <!-- Wordmark + tagline -->
  <g transform="translate(260,40)">
    <text x="0" y="70" font-family="Cinzel, 'Cormorant Garamond', serif" font-size="72" letter-spacing="3" fill="#0B0B0C">
      TOPSTONE
    </text>
    <text x="0" y="118" font-family="Inter, system-ui, -apple-system, Segoe UI, Roboto, Arial, sans-serif"
          font-size="22" letter-spacing="3" fill="#6B7280">
      Superficies que trascienden
    </text>
  </g>
</svg>