<svg xmlns="http://www.w3.org/2000/svg" viewBox="0 0 240 240" aria-label="TopStone mark (light)">
  <title>TopStone Mark — Light</title>
  <!-- Slab plate -->
  <rect x="20" y="20" width="200" height="200" rx="24" fill="#FFFFFF"/>
  <!-- Transcend bevel -->
  <path d="M220 95 L95 220 L220 220 Z" fill="#B08968"/>
  <!-- T (carve) -->
  <rect x="64" y="60" width="112" height="18" fill="#0B0B0C"/>
  <rect x="112" y="78" width="16" height="88" fill="#0B0B0C"/>
  <!-- S (carve) -->
  <path d="M152 176c0 14-12 24-32 24-18 0-32-7-40-18l14-10c6 7 15 12 26 12 10 0 16-3 16-8 0-5-5-8-20-11-24-5-38-13-38-30 0-16 15-28 38-28 18 0 31 6 39 16l-14 10c-6-7-15-10-25-10-12 0-18 4-18 10 0 5 6 8 22 11 22 5 36 12 36 30Z" fill="#0B0B0C"/>
</svg>